<?xml version="1.0" standalone="no"?>
<!DOCTYPE svg PUBLIC "-//W3C//DTD SVG 20010904//EN"
 "http://www.w3.org/TR/2001/REC-SVG-20010904/DTD/svg10.dtd">
<svg version="1.0" xmlns="http://www.w3.org/2000/svg"
 width="100.000000pt" height="100.000000pt" viewBox="0 0 100.000000 100.000000"
 preserveAspectRatio="xMidYMid meet">
<metadata>
Created by potrace 1.15, written by Peter Selinger 2001-2017
</metadata>
<g transform="translate(0.000000,100.000000) scale(0.100000,-0.100000)"
fill="#000000" stroke="none">
<path d="M243 860 c-56 -12 -91 -31 -135 -77 -52 -53 -70 -102 -69 -187 1
-122 42 -207 154 -313 56 -53 260 -204 298 -221 14 -6 265 175 324 234 197
196 187 463 -21 550 -82 34 -206 15 -265 -42 l-26 -25 -51 35 c-43 28 -132 59
-160 55 -4 -1 -26 -5 -49 -9z m114 -55 c39 -12 62 -27 95 -64 l44 -49 33 39
c91 109 241 110 330 2 87 -106 52 -265 -88 -403 -62 -62 -254 -203 -276 -203
-5 0 -57 33 -115 73 -201 141 -292 263 -293 392 -1 112 61 193 168 219 44 10
47 10 102 -6z"/>
</g>
</svg>
